<svg width="690" height="750" viewBox="0 0 690 750" fill="none" xmlns="http://www.w3.org/2000/svg">
<g opacity="0.5">
<path fill-rule="evenodd" clip-rule="evenodd" d="M200.561 654.448C215.155 668.449 231.601 679.339 249.454 687.858L275.16 746.531H299.31L304.125 666.153C304.125 666.153 419.541 633.261 452.211 565.774C456.952 557.181 454.803 555.922 450.877 560.663C450.877 560.663 411.837 624.372 286.42 651.707V720.823L259.899 673.412C259.085 675.264 223.304 658.3 205.525 648.966C198.339 646.299 201.228 654.67 200.561 654.448Z" fill="#2C608A"/>
<path fill-rule="evenodd" clip-rule="evenodd" d="M199.672 446.21C215.081 443.543 232.193 445.247 243.231 446.58C251.825 456.211 284.42 499.918 361.166 491.102C347.387 545.329 285.086 535.847 244.194 509.326C235.823 503.918 228.638 493.695 222.119 487.028C205.525 520.29 131 531.55 125 473.99C176.411 481.176 183.449 462.804 199.672 446.21Z" fill="#2C608A"/>
<path fill-rule="evenodd" clip-rule="evenodd" d="M198.413 542.217L224.933 542.143L259.751 546.143C259.751 546.143 242.639 571.626 248.639 593.702C254.639 615.778 268.566 646.077 266.048 649.558C263.529 653.04 189.005 649.262 192.19 614.074C195.45 578.812 196.635 601.406 197.82 569.034C196.487 553.625 198.191 543.624 198.413 542.217Z" fill="#2C608A"/>
<path fill-rule="evenodd" clip-rule="evenodd" d="M136.186 297.68C136.186 297.68 141.001 228.563 157.891 189.968C174.782 151.372 210.118 118.407 239.083 123.222C268.048 128.037 321.089 129.667 341.165 128.037C361.241 126.407 411.096 115.147 437.617 132.037C464.137 148.928 473.768 165.003 479.398 195.524C485.028 226.045 499.473 246.194 477.768 271.9C456.063 297.606 455.248 298.421 455.248 298.421C455.248 298.421 464.063 311.31 468.138 332.201C472.138 353.091 476.212 380.427 476.212 380.427C476.212 380.427 503.548 347.461 526.068 350.647C548.588 353.832 553.403 356.277 553.403 356.277C553.403 356.277 565.478 281.53 563.849 255.01C562.219 228.489 568.664 147.298 546.958 129.593C525.253 111.888 466.582 97.4421 463.322 65.2916C460.137 33.141 457.692 1.80525 444.803 11.4356C431.913 21.066 438.358 29.9556 411.022 24.3255C383.687 18.6954 341.091 -6.19537 337.09 6.62043C333.09 19.5103 335.461 44.4011 315.385 37.9562C295.31 31.5112 279.975 19.4362 266.344 29.8815C252.714 40.3267 259.899 40.3267 233.379 45.1419C206.858 49.9571 184.338 48.3273 184.338 75.6628C184.338 102.998 181.153 102.998 168.263 127.148C155.447 151.372 134.556 169.077 136.186 297.68Z" fill="#2C608A"/>
</g>
<path d="M368.005 342.328C374.557 342.328 379.869 337.017 379.869 330.465C379.869 323.913 374.557 318.601 368.005 318.601C361.453 318.601 356.142 323.913 356.142 330.465C356.142 337.017 361.453 342.328 368.005 342.328Z" fill="white"/>
<path d="M288.454 394.66C288.663 402.822 290.03 405.536 292.118 406.257C293.902 406.884 295.876 406.997 297.547 406.997C298.704 406.997 299.331 407.206 299.331 407.833C299.331 408.668 298.382 408.877 296.92 408.877C290.125 408.877 285.949 408.554 283.956 408.554C283.007 408.554 278.11 408.877 272.662 408.877C271.295 408.877 270.365 408.763 270.365 407.833C270.365 407.206 270.992 406.997 272.036 406.997C273.402 406.997 275.281 406.884 276.743 406.466C279.457 405.631 279.875 402.594 279.989 393.502L280.938 331.622C280.938 329.534 281.261 328.073 282.305 328.073C283.462 328.073 284.392 329.44 286.177 331.319C287.429 332.685 303.317 349.712 318.578 364.878C325.677 371.977 339.799 387.048 341.583 388.718H342.115L341.071 341.777C340.957 335.4 340.027 333.407 337.521 332.363C335.946 331.736 333.44 331.736 331.979 331.736C330.726 331.736 330.308 331.414 330.308 330.787C330.308 329.952 331.466 329.838 333.023 329.838C338.451 329.838 343.481 330.161 345.664 330.161C346.822 330.161 350.789 329.838 355.914 329.838C357.281 329.838 358.325 329.952 358.325 330.787C358.325 331.414 357.699 331.736 356.446 331.736C355.402 331.736 354.567 331.736 353.314 332.059C350.391 332.894 349.556 335.096 349.442 340.942L348.284 406.903C348.284 409.199 347.866 410.148 346.917 410.148C345.759 410.148 344.506 408.99 343.368 407.852C336.781 401.588 323.399 387.883 312.523 377.121C301.134 365.827 289.517 352.768 287.638 350.775H287.316L288.454 394.66Z" fill="white"/>
<path d="M361.742 370.003C361.742 357.323 361.742 354.988 361.533 352.312C361.324 349.484 360.28 348.06 357.983 347.643C356.825 347.396 355.478 347.301 354.225 347.301C353.181 347.301 352.555 347.13 352.555 346.466C352.555 345.972 353.39 345.801 355.06 345.801C359.027 345.801 365.614 346.048 368.651 346.048C371.27 346.048 377.439 345.801 381.406 345.801C382.773 345.801 383.608 345.972 383.608 346.466C383.608 347.13 382.982 347.301 381.938 347.301C380.894 347.301 380.059 347.377 378.806 347.548C375.978 347.965 375.142 349.389 374.934 352.312C374.725 354.988 374.725 357.323 374.725 370.003V384.675C374.725 392.761 374.725 399.367 375.142 402.935C375.465 405.194 376.186 406.694 379.318 407.016C380.78 407.187 383.077 407.358 384.652 407.358C385.81 407.358 386.322 407.605 386.322 408.022C386.322 408.611 385.487 408.858 384.329 408.858C377.439 408.858 370.853 408.611 368.024 408.611C365.614 408.611 359.027 408.858 354.851 408.858C353.485 408.858 352.763 408.611 352.763 408.022C352.763 407.605 353.181 407.358 354.434 407.358C356.009 407.358 357.262 407.187 358.192 407.016C360.28 406.675 360.906 405.27 361.229 402.841C361.761 399.329 361.761 392.742 361.761 384.656V370.003H361.742Z" fill="white"/>
<path d="M402.191 378.563C402.191 391.945 402.191 399.158 404.393 401.037C406.177 402.613 408.891 403.334 417.034 403.334C422.577 403.334 426.658 403.22 429.258 400.411C430.511 399.044 431.764 396.121 431.973 394.147C432.087 393.198 432.295 392.572 433.13 392.572C433.871 392.572 433.966 393.103 433.966 394.356C433.966 395.514 433.225 403.353 432.39 406.371C431.764 408.668 431.232 409.199 425.804 409.199C418.268 409.199 412.839 408.99 408.132 408.877C403.425 408.668 399.666 408.554 395.377 408.554C394.219 408.554 391.922 408.554 389.416 408.668C387.006 408.668 384.291 408.877 382.203 408.877C380.837 408.877 380.116 408.554 380.116 407.833C380.116 407.301 380.533 406.997 381.786 406.997C383.361 406.997 384.614 406.789 385.544 406.58C387.632 406.162 388.164 403.866 388.581 400.828C389.113 396.444 389.113 388.187 389.113 378.563V360.17C389.113 344.283 389.113 341.36 388.904 338C388.695 334.451 387.86 332.78 384.405 332.04C383.57 331.831 382.317 331.717 380.951 331.717C379.793 331.717 379.166 331.509 379.166 330.768C379.166 330.028 379.907 329.819 381.463 329.819C386.379 329.819 392.966 330.142 395.775 330.142C398.281 330.142 405.911 329.819 409.992 329.819C411.454 329.819 412.194 330.028 412.194 330.768C412.194 331.509 411.568 331.717 410.315 331.717C409.157 331.717 407.487 331.831 406.234 332.04C403.406 332.571 402.57 334.337 402.362 338C402.153 341.341 402.153 344.264 402.153 360.17V378.563H402.191Z" fill="white"/>
<path d="M420.584 369.357C420.584 351.477 432.39 328.377 463.766 328.377C489.79 328.377 506 343.543 506 367.478C506 391.414 489.277 410.338 462.722 410.338C432.713 410.338 420.584 387.864 420.584 369.357ZM491.365 371.35C491.365 347.927 477.889 333.407 460.729 333.407C448.714 333.407 435.01 340.088 435.01 366.131C435.01 387.883 447.025 405.118 467.107 405.118C474.434 405.118 491.365 401.55 491.365 371.35Z" fill="white"/>
<path fill-rule="evenodd" clip-rule="evenodd" d="M285.095 432.945C285.095 436.513 285.095 439.569 284.905 441.183C284.753 442.303 284.563 443.157 283.785 443.309C283.443 443.385 282.969 443.461 282.399 443.461C281.944 443.461 281.773 443.575 281.773 443.764C281.773 444.03 282.039 444.144 282.551 444.144C284.108 444.144 286.537 444.03 287.43 444.03C288.436 444.03 290.865 444.144 293.428 444.144C293.845 444.144 294.168 444.03 294.168 443.764C294.168 443.575 293.978 443.461 293.542 443.461C292.953 443.461 292.118 443.385 291.567 443.309C290.41 443.157 290.182 442.303 290.049 441.221C289.859 439.55 289.859 436.494 289.859 432.945V417.456C289.859 417.039 289.973 416.792 290.163 416.716C290.505 416.602 291.093 416.564 291.681 416.564C292.573 416.564 294.168 416.792 295.554 418.083C297.717 420.019 297.831 422.619 297.831 423.891C297.831 427.839 294.813 430.269 292.649 430.269C291.833 430.269 291.567 430.382 291.567 430.686C291.567 430.952 291.833 430.99 292.023 431.028C292.213 431.066 292.649 431.066 292.839 431.066C298.344 431.066 302.368 427.194 302.368 421.689C302.368 419.639 301.286 417.893 300.432 417.077C299.805 416.488 298.078 414.875 293.238 414.875C291.454 414.875 289.214 414.989 287.619 414.989C286.537 414.989 284.089 414.875 282.039 414.875C281.45 414.875 281.185 414.951 281.185 415.216C281.185 415.482 281.412 415.558 281.849 415.558C282.399 415.558 283.045 415.596 283.367 415.672C284.639 415.938 284.962 416.564 285.038 417.874C285.114 419.108 285.114 420.189 285.114 426.074V432.945H285.095ZM310.435 432.945C310.435 436.513 310.435 439.569 310.245 441.183C310.093 442.303 309.903 443.157 309.125 443.309C308.784 443.385 308.309 443.461 307.74 443.461C307.284 443.461 307.113 443.575 307.113 443.764C307.113 444.03 307.379 444.144 307.891 444.144C308.67 444.144 309.676 444.068 310.568 444.068C311.498 444.03 312.352 444.03 312.77 444.03C313.928 444.03 315.123 444.068 316.794 444.144C318.464 444.182 320.59 444.258 323.494 444.258C324.956 444.258 325.316 444.258 325.582 443.252C325.772 442.474 326.095 439.854 326.095 438.962C326.095 438.582 326.095 438.26 325.791 438.26C325.525 438.26 325.449 438.412 325.373 438.848C325.108 440.443 324.633 441.24 323.627 441.714C322.621 442.17 320.989 442.17 319.983 442.17C316.034 442.17 315.408 441.581 315.332 438.924C315.294 437.804 315.332 434.236 315.332 432.926V429.87C315.332 429.642 315.37 429.49 315.56 429.49C316.49 429.49 320.324 429.528 321.065 429.604C322.488 429.756 323.039 430.345 323.228 431.123C323.342 431.635 323.342 432.129 323.38 432.508C323.38 432.698 323.456 432.85 323.722 432.85C324.064 432.85 324.064 432.432 324.064 432.11C324.064 431.844 324.177 430.288 324.215 429.509C324.367 427.535 324.519 426.909 324.519 426.681C324.519 426.453 324.405 426.377 324.253 426.377C324.064 426.377 323.912 426.567 323.627 426.89C323.285 427.27 322.697 427.402 321.767 427.478C320.875 427.554 316.433 427.554 315.579 427.554C315.351 427.554 315.313 427.402 315.313 427.137V417.342C315.313 417.077 315.389 416.963 315.579 416.963C316.357 416.963 320.419 417.039 321.083 417.115C323.02 417.342 323.399 417.817 323.684 418.5C323.874 418.956 323.912 419.62 323.912 419.886C323.912 420.227 323.988 420.436 324.253 420.436C324.519 420.436 324.595 420.208 324.633 420.019C324.709 419.563 324.785 417.855 324.823 417.456C324.937 415.672 325.127 415.216 325.127 414.932C325.127 414.742 325.089 414.59 324.899 414.59C324.709 414.59 324.481 414.704 324.272 414.742C323.969 414.818 323.342 414.894 322.602 414.97C321.862 415.008 314.155 415.008 312.922 415.008C312.371 415.008 311.498 414.97 310.492 414.932C309.524 414.932 308.404 414.894 307.36 414.894C306.772 414.894 306.506 414.97 306.506 415.235C306.506 415.501 306.734 415.577 307.17 415.577C307.721 415.577 308.366 415.615 308.689 415.691C309.96 415.957 310.283 416.583 310.359 417.893C310.435 419.127 310.435 420.208 310.435 426.093V432.945ZM346.708 444.637C347.335 444.675 348.018 444.713 348.758 444.713C351.245 444.713 354.187 444.448 355.725 443.821C356.389 443.556 356.541 443.366 356.731 442.701C357.11 441.392 357.585 438.013 357.585 437.557C357.585 437.254 357.509 436.969 357.243 436.969C356.939 436.969 356.863 437.121 356.731 437.747C356.579 438.45 356.066 439.569 355.421 440.31C353.864 442.094 351.776 442.474 348.341 442.474C343.159 442.474 336.155 437.899 336.155 428.693C336.155 424.935 336.895 421.252 339.723 418.671C341.432 417.115 343.633 416.279 346.993 416.279C350.562 416.279 353.58 417.323 354.851 418.671C355.819 419.677 356.313 421.025 356.37 422.239C356.37 422.79 356.446 423.094 356.75 423.094C357.091 423.094 357.167 422.79 357.205 422.202C357.281 421.423 357.243 419.297 357.319 418.026C357.395 416.678 357.509 416.203 357.509 415.9C357.509 415.672 357.357 415.482 356.92 415.444C355.762 415.33 354.529 414.989 353.048 414.78C351.264 414.552 349.84 414.4 347.43 414.4C341.659 414.4 337.977 415.957 335.206 418.5C331.485 421.898 330.669 426.472 330.669 429.111C330.669 438.981 337.559 443.518 344.753 444.486L341.659 446.801C341.147 447.181 341.033 447.257 341.033 447.39C341.033 447.504 341.337 447.618 341.887 447.694C344.488 448.073 344.943 449.478 344.943 450.522C344.943 452.154 342.969 453.122 341.697 453.122C341.147 453.122 340.691 453.274 340.691 453.635C340.691 453.9 340.995 454.014 341.356 454.014C346.898 454.014 348.474 451.414 348.474 449.876C348.474 448.13 346.727 447.048 343.899 446.782L346.708 444.637ZM377.211 434.065C377.401 434.065 377.515 434.141 377.591 434.331L380.685 442.531C380.875 442.986 380.609 443.347 380.343 443.423C379.964 443.461 379.793 443.537 379.793 443.764C379.793 444.03 380.248 444.03 380.951 444.068C384.045 444.144 386.873 444.144 388.259 444.144C389.682 444.144 390.043 444.068 390.043 443.764C390.043 443.499 389.853 443.461 389.53 443.461C389.075 443.461 388.486 443.423 387.898 443.309C387.082 443.081 385.962 442.55 384.5 439.076C382.033 433.211 375.826 417.418 374.896 415.292C374.516 414.4 374.269 414.059 373.928 414.059C373.548 414.059 373.301 414.476 372.846 415.615L363.165 439.911C362.387 441.847 361.647 443.157 359.881 443.404C359.578 443.442 359.027 443.48 358.686 443.48C358.382 443.48 358.23 443.556 358.23 443.783C358.23 444.087 358.458 444.163 358.97 444.163C360.982 444.163 363.108 444.049 363.545 444.049C364.741 444.049 366.411 444.163 367.645 444.163C368.062 444.163 368.309 444.087 368.309 443.783C368.309 443.556 368.195 443.48 367.721 443.48H367.132C365.936 443.48 365.576 442.967 365.576 442.284C365.576 441.828 365.766 440.898 366.164 439.93L368.252 434.388C368.328 434.16 368.404 434.084 368.594 434.084H377.211V434.065ZM369.353 432.129C369.201 432.129 369.163 432.015 369.201 431.863L372.77 422.334C372.808 422.183 372.884 421.993 372.998 421.993C373.111 421.993 373.149 422.183 373.187 422.334L376.68 431.901C376.718 432.015 376.68 432.129 376.49 432.129H369.353ZM395.889 422.638L396.307 438.905C396.383 441.923 396.895 442.929 397.654 443.195C398.319 443.423 399.04 443.461 399.666 443.461C400.084 443.461 400.331 443.537 400.331 443.764C400.331 444.068 399.989 444.144 399.439 444.144C396.914 444.144 395.377 444.03 394.636 444.03C394.295 444.03 392.472 444.144 390.46 444.144C389.948 444.144 389.606 444.106 389.606 443.764C389.606 443.537 389.834 443.461 390.233 443.461C390.745 443.461 391.428 443.423 391.979 443.271C392.985 442.967 393.137 441.847 393.175 438.469L393.516 415.558C393.516 414.78 393.63 414.248 394.029 414.248C394.447 414.248 394.807 414.761 395.472 415.444C395.927 415.957 401.811 422.258 407.468 427.877C410.106 430.515 415.326 436.077 415.971 436.703H416.161L415.782 419.316C415.744 416.963 415.402 416.222 414.472 415.824C413.902 415.596 412.972 415.596 412.422 415.596C411.966 415.596 411.795 415.482 411.795 415.254C411.795 414.951 412.213 414.913 412.801 414.913C414.814 414.913 416.674 415.027 417.471 415.027C417.889 415.027 419.369 414.913 421.267 414.913C421.78 414.913 422.159 414.951 422.159 415.254C422.159 415.482 421.932 415.596 421.457 415.596C421.077 415.596 420.755 415.596 420.299 415.71C419.217 416.014 418.913 416.83 418.876 418.994L418.458 443.423C418.458 444.277 418.306 444.619 417.945 444.619C417.528 444.619 417.053 444.201 416.636 443.764C414.206 441.449 409.252 436.381 405.228 432.376C401.014 428.2 396.724 423.359 396.022 422.619H395.889V422.638ZM435.864 427.213C435.75 427.213 435.636 427.137 435.636 426.947V426.131C435.636 420.246 435.636 419.164 435.712 417.931C435.788 416.583 436.092 415.919 437.136 415.729C437.591 415.653 437.952 415.615 438.256 415.615C438.711 415.615 438.958 415.539 438.958 415.273C438.958 415.008 438.692 414.932 438.142 414.932C436.623 414.932 434.194 415.046 433.263 415.046C432.219 415.046 429.771 414.932 427.683 414.932C427.132 414.932 426.867 415.008 426.867 415.273C426.867 415.539 427.094 415.615 427.531 415.615C428.082 415.615 428.727 415.653 429.05 415.729C430.321 415.995 430.644 416.621 430.72 417.931C430.796 419.164 430.796 420.246 430.796 426.131V432.945C430.796 436.513 430.796 439.569 430.606 441.183C430.454 442.303 430.264 443.157 429.486 443.309C429.144 443.385 428.67 443.461 428.1 443.461C427.645 443.461 427.474 443.575 427.474 443.764C427.474 444.03 427.74 444.144 428.252 444.144C429.809 444.144 432.238 444.03 433.131 444.03C434.212 444.03 436.661 444.144 439.167 444.144C439.622 444.144 439.945 444.03 439.945 443.764C439.945 443.575 439.755 443.461 439.318 443.461C438.73 443.461 437.895 443.385 437.344 443.309C436.187 443.157 435.959 442.303 435.826 441.221C435.636 439.55 435.636 436.494 435.636 432.945V429.547C435.636 429.357 435.75 429.32 435.864 429.32H450.65C450.764 429.32 450.878 429.395 450.878 429.547V432.945C450.878 436.513 450.878 439.569 450.688 441.183C450.536 442.303 450.347 443.157 449.568 443.309C449.227 443.385 448.752 443.461 448.183 443.461C447.727 443.461 447.556 443.575 447.556 443.764C447.556 444.03 447.822 444.144 448.373 444.144C449.891 444.144 452.321 444.03 453.213 444.03C454.295 444.03 456.743 444.144 459.249 444.144C459.704 444.144 460.027 444.03 460.027 443.764C460.027 443.575 459.837 443.461 459.401 443.461C458.812 443.461 457.977 443.385 457.427 443.309C456.269 443.157 456.041 442.303 455.908 441.221C455.718 439.55 455.718 436.494 455.718 432.945V426.131C455.718 420.246 455.718 419.164 455.794 417.931C455.87 416.583 456.174 415.919 457.218 415.729C457.673 415.653 458.034 415.615 458.338 415.615C458.793 415.615 459.04 415.539 459.04 415.273C459.04 415.008 458.774 414.932 458.224 414.932C456.705 414.932 454.276 415.046 453.346 415.046C452.302 415.046 449.853 414.932 447.765 414.932C447.215 414.932 446.949 415.008 446.949 415.273C446.949 415.539 447.177 415.615 447.613 415.615C448.164 415.615 448.809 415.653 449.132 415.729C450.404 415.995 450.726 416.621 450.802 417.931C450.878 419.164 450.878 420.246 450.878 426.131V426.947C450.878 427.137 450.764 427.213 450.65 427.213H435.864ZM478.591 434.065H469.954C469.765 434.065 469.689 434.141 469.613 434.369L467.525 439.911C467.145 440.879 466.936 441.809 466.936 442.265C466.936 442.967 467.278 443.461 468.493 443.461H469.081C469.537 443.461 469.67 443.537 469.67 443.764C469.67 444.068 469.442 444.144 469.005 444.144C467.772 444.144 466.101 444.03 464.905 444.03C464.488 444.03 462.343 444.144 460.331 444.144C459.818 444.144 459.591 444.068 459.591 443.764C459.591 443.537 459.742 443.461 460.046 443.461C460.388 443.461 460.938 443.423 461.242 443.385C463.026 443.157 463.767 441.828 464.526 439.892L474.244 415.577C474.7 414.457 474.947 414.021 475.326 414.021C475.668 414.021 475.915 414.362 476.294 415.254C477.224 417.38 483.412 433.173 485.899 439.038C487.36 442.512 488.499 443.043 489.296 443.271C489.885 443.385 490.454 443.423 490.929 443.423C491.233 443.423 491.441 443.461 491.441 443.726C491.441 444.03 491.1 444.106 489.657 444.106C488.271 444.106 485.443 444.106 482.349 444.03C481.647 443.992 481.191 443.992 481.191 443.726C481.191 443.499 481.343 443.423 481.742 443.385C482.008 443.309 482.292 442.967 482.084 442.493L478.99 434.293C478.895 434.141 478.781 434.065 478.591 434.065ZM470.733 432.129H477.851C478.04 432.129 478.078 432.015 478.04 431.901L474.548 422.334C474.51 422.183 474.472 421.993 474.358 421.993C474.244 421.993 474.168 422.183 474.13 422.334L470.562 431.863C470.543 432.015 470.581 432.129 470.733 432.129Z" fill="white"/>
<path fill-rule="evenodd" clip-rule="evenodd" d="M289.916 302.524V307.649H291.131C292.061 307.649 292.725 307.44 293.124 307.042C293.523 306.643 293.712 305.96 293.712 305.011C293.712 304.118 293.504 303.492 293.086 303.112C292.668 302.733 291.928 302.543 290.884 302.543H289.916V302.524ZM288.208 301.081H291.017C292.517 301.081 293.636 301.404 294.377 302.049C295.117 302.695 295.478 303.682 295.478 305.011C295.478 306.434 295.098 307.478 294.339 308.123C293.58 308.769 292.365 309.11 290.694 309.11H289.916V314.919H288.208V301.081ZM308.442 301.081H310.15V313.419H314.687V314.919H308.423V301.081H308.442ZM331.865 302.847L329.663 309.832H333.991L331.865 302.847ZM330.954 301.081H332.89L337.332 314.919H335.49L334.427 311.293H329.189L328.069 314.919H326.341L330.954 301.081ZM347.923 301.081H355.971V302.562H352.801V314.919H351.093V302.562H347.923V301.081ZM372.049 302.847L369.847 309.851H374.174L372.049 302.847ZM371.118 301.081H373.055L377.496 314.919H375.655L374.592 311.293H369.353L368.233 314.919H366.506L371.118 301.081ZM390.005 301.081H396.098V302.524H391.732V307.098H395.946V308.56H391.732V314.919H390.024V301.081H390.005ZM413.523 302.315C412.46 302.315 411.644 302.79 411.093 303.758C410.543 304.726 410.258 306.13 410.258 307.991C410.258 309.851 410.543 311.274 411.093 312.242C411.644 313.21 412.46 313.685 413.523 313.685C414.586 313.685 415.402 313.191 415.952 312.223C416.503 311.255 416.788 309.851 416.788 307.991C416.788 306.149 416.503 304.745 415.952 303.777C415.402 302.809 414.586 302.315 413.523 302.315ZM413.523 300.892C415.136 300.892 416.389 301.518 417.281 302.752C418.173 303.986 418.61 305.732 418.61 308.01C418.61 310.287 418.173 312.034 417.281 313.267C416.389 314.501 415.136 315.109 413.523 315.109C411.909 315.109 410.657 314.482 409.765 313.267C408.872 312.034 408.436 310.287 408.436 308.01C408.436 305.732 408.872 303.986 409.765 302.752C410.657 301.499 411.909 300.892 413.523 300.892ZM433.662 302.524V307.25H434.402C435.579 307.25 436.395 307.061 436.87 306.681C437.344 306.301 437.572 305.656 437.572 304.745C437.572 303.948 437.344 303.378 436.908 303.036C436.471 302.695 435.655 302.524 434.497 302.524H433.662ZM431.954 301.081H434.307C436.149 301.081 437.439 301.366 438.199 301.917C438.939 302.486 439.319 303.397 439.319 304.688C439.319 305.58 439.072 306.32 438.597 306.89C438.123 307.459 437.42 307.82 436.528 307.991C436.984 308.048 437.344 308.199 437.591 308.465C437.857 308.712 438.104 309.224 438.369 310.003L440.116 314.919H438.275L436.775 310.515C436.509 309.718 436.244 309.205 435.959 308.997C435.674 308.788 435.238 308.674 434.611 308.674H433.643V314.919H431.954V301.081ZM452.795 301.081H455.32L458.888 312.299L462.438 301.081H465V314.919H463.387V302.619L459.439 314.919H458.224L454.314 302.619V314.919H452.795V301.081ZM482.938 302.847L480.736 309.851H485.064L482.938 302.847ZM482.027 301.081H483.963L488.404 314.919H486.563L485.5 311.293H480.261L479.141 314.919H477.414L482.027 301.081Z" fill="white"/>
<path fill-rule="evenodd" clip-rule="evenodd" d="M198.853 424.012C201.722 426.764 204.955 428.905 208.464 430.579L213.517 442.113H218.264L219.211 426.313C219.211 426.313 241.898 419.847 248.32 406.581C249.252 404.892 248.83 404.645 248.058 405.577C248.058 405.577 240.384 418.1 215.73 423.473V437.06L210.517 427.74C210.357 428.104 203.324 424.769 199.829 422.934C198.416 422.41 198.984 424.056 198.853 424.012Z" fill="white"/>
<path fill-rule="evenodd" clip-rule="evenodd" d="M198.678 383.079C201.707 382.554 205.071 382.889 207.241 383.151C208.93 385.044 215.337 393.636 230.423 391.903C227.715 402.562 215.468 400.698 207.43 395.485C205.785 394.422 204.372 392.413 203.091 391.102C199.829 397.64 185.18 399.854 184 388.539C194.106 389.952 195.489 386.34 198.678 383.079Z" fill="white"/>
<path fill-rule="evenodd" clip-rule="evenodd" d="M198.431 401.951L203.644 401.936L210.488 402.723C210.488 402.723 207.124 407.732 208.304 412.071C209.483 416.411 212.221 422.367 211.726 423.051C211.231 423.735 196.581 422.993 197.208 416.076C197.848 409.144 198.081 413.586 198.314 407.222C198.052 404.193 198.387 402.227 198.431 401.951Z" fill="white"/>
<path fill-rule="evenodd" clip-rule="evenodd" d="M186.018 353.911C186.018 353.911 186.964 340.325 190.284 332.738C193.604 325.151 200.55 318.671 206.244 319.618C211.938 320.564 222.364 320.885 226.311 320.564C230.257 320.244 240.057 318.031 245.27 321.351C250.483 324.671 252.376 327.831 253.483 333.83C254.59 339.83 257.429 343.791 253.163 348.844C248.896 353.897 248.736 354.057 248.736 354.057C248.736 354.057 250.469 356.591 251.27 360.697C252.056 364.803 252.857 370.177 252.857 370.177C252.857 370.177 258.23 363.697 262.657 364.323C267.084 364.949 268.03 365.43 268.03 365.43C268.03 365.43 270.404 350.737 270.084 345.523C269.763 340.31 271.03 324.35 266.764 320.87C262.497 317.39 250.964 314.55 250.323 308.23C249.697 301.911 249.216 295.751 246.683 297.644C244.149 299.537 245.416 301.284 240.042 300.178C234.669 299.071 226.296 294.178 225.51 296.697C224.723 299.231 225.189 304.124 221.243 302.857C217.297 301.59 214.282 299.217 211.603 301.27C208.924 303.323 210.336 303.323 205.123 304.27C199.91 305.216 195.483 304.896 195.483 310.269C195.483 315.642 194.857 315.642 192.323 320.39C189.804 325.151 185.697 328.632 186.018 353.911Z" fill="white"/>
</svg>
