<svg width="208" height="37" viewBox="0 0 208 37" fill="none" xmlns="http://www.w3.org/2000/svg">
<path fill-rule="evenodd" clip-rule="evenodd" d="M4.00176 32.1176C4.74752 32.8599 5.58793 33.4373 6.50026 33.8891L7.81387 37H9.04801L9.2941 32.7382C9.2941 32.7382 15.192 30.9942 16.8615 27.4159C17.1038 26.9602 16.994 26.8935 16.7934 27.1449C16.7934 27.1449 14.7983 30.5229 8.38929 31.9723V35.637L7.03404 33.1232C6.9924 33.2214 5.16394 32.3218 4.25539 31.8269C3.88818 31.6855 4.03583 32.1294 4.00176 32.1176Z" fill="#0F346D"/>
<path fill-rule="evenodd" clip-rule="evenodd" d="M3.79423 22.0656C4.57717 21.9413 5.44668 22.0207 6.00753 22.0829C6.44417 22.532 8.10038 24.57 12 24.159C11.2999 26.6876 8.13426 26.2454 6.05646 25.0087C5.63112 24.7566 5.266 24.2798 4.93476 23.969C4.0916 25.52 0.30489 26.0451 0 23.361C2.6123 23.6961 2.96989 22.8394 3.79423 22.0656Z" fill="#0F346D"/>
<path fill-rule="evenodd" clip-rule="evenodd" d="M3.34055 26.0041L4.7691 26L6.64459 26.2213C6.64459 26.2213 5.72281 27.6311 6.04603 28.8526C6.36925 30.0739 7.11945 31.7502 6.98377 31.9428C6.8481 32.1355 2.83376 31.9264 3.00535 29.9796C3.18092 28.0288 3.24478 29.2788 3.30862 27.4878C3.23679 26.6352 3.32857 26.082 3.34055 26.0041Z" fill="#0F346D"/>
<path fill-rule="evenodd" clip-rule="evenodd" d="M1.00442 14.0537C1.00442 14.0537 1.24073 10.7574 2.06964 8.91673C2.89855 7.0761 4.63272 5.50394 6.05423 5.73352C7.47574 5.96319 10.0788 6.04087 11.0641 5.96319C12.0493 5.88542 14.4961 5.34849 15.7976 6.15397C17.0991 6.95945 17.5718 7.72613 17.848 9.18173C18.1244 10.6373 18.8333 11.5983 17.7681 12.8242C16.7029 14.0501 16.6628 14.089 16.6628 14.089C16.6628 14.089 17.0955 14.7037 17.2954 15.7C17.4917 16.6963 17.6917 18 17.6917 18C17.6917 18 19.0333 16.4278 20.1385 16.5797C21.2437 16.7316 21.48 16.8482 21.48 16.8482C21.48 16.8482 22.0726 13.2835 21.9926 12.0187C21.9126 10.7539 22.2289 6.88177 21.1637 6.0374C20.0985 5.19304 17.2191 4.50404 17.0592 2.97076C16.9028 1.43748 16.7828 -0.0569932 16.1503 0.402339C15.5176 0.861587 15.834 1.2855 14.4924 1.01703C13.1508 0.748569 11.0604 -0.43856 10.8641 0.172672C10.6678 0.78737 10.7841 1.9745 9.7989 1.66707C8.81363 1.35972 8.06107 0.783904 7.39213 1.28204C6.72318 1.78017 7.07583 1.78017 5.77429 2.00983C4.47276 2.23942 3.36754 2.16173 3.36754 3.46534C3.36754 4.76904 3.21121 4.76904 2.57862 5.92075C1.94967 7.0761 0.924433 7.92047 1.00442 14.0537Z" fill="#0F346D"/>
<path fill-rule="evenodd" clip-rule="evenodd" d="M53.9301 2.91856V5.8024H54.5915C55.0979 5.8024 55.4597 5.68491 55.6767 5.46061C55.8937 5.23631 55.9971 4.8518 55.9971 4.31776C55.9971 3.81576 55.8834 3.46329 55.656 3.24967C55.4287 3.03605 55.0256 2.92924 54.4572 2.92924H53.9301V2.91856ZM53 2.10681H54.5295C55.346 2.10681 55.9557 2.28839 56.3588 2.65154C56.7618 3.01469 56.9582 3.57009 56.9582 4.31776C56.9582 5.11883 56.7515 5.70628 56.3381 6.06943C55.9247 6.43258 55.2633 6.62483 54.3538 6.62483H53.9301V9.89319H53V2.10681ZM64.0168 2.10681H64.9469V9.0494H67.4169V9.89319H64.0064V2.10681H64.0168ZM76.7698 3.10013L75.571 7.03071H77.9273L76.7698 3.10013ZM76.2737 2.10681H77.3279L79.7462 9.89319H78.7437L78.165 7.85314H75.3126L74.7029 9.89319H73.7624L76.2737 2.10681ZM85.5129 2.10681H89.8949V2.93992H88.169V9.89319H87.2388V2.93992H85.5129V2.10681ZM98.6483 3.10013L97.4495 7.04139H99.8058L98.6483 3.10013ZM98.1419 2.10681H99.1961L101.614 9.89319H100.612L100.033 7.85314H97.1808L96.5711 9.89319H95.6306L98.1419 2.10681ZM108.425 2.10681H111.742V2.91856H109.365V5.49266H111.66V6.31509H109.365V9.89319H108.435V2.10681H108.425ZM121.23 2.80107C120.651 2.80107 120.207 3.06809 119.907 3.61282C119.607 4.15754 119.452 4.94793 119.452 5.99466C119.452 7.04139 119.607 7.84246 119.907 8.38718C120.207 8.93191 120.651 9.19893 121.23 9.19893C121.808 9.19893 122.253 8.92123 122.552 8.3765C122.852 7.83178 123.007 7.04139 123.007 5.99466C123.007 4.95861 122.852 4.16823 122.552 3.6235C122.253 3.07877 121.808 2.80107 121.23 2.80107ZM121.23 2C122.108 2 122.79 2.35247 123.276 3.04673C123.762 3.74099 123.999 4.72363 123.999 6.00534C123.999 7.28705 123.762 8.26969 123.276 8.96395C122.79 9.65821 122.108 10 121.23 10C120.351 10 119.669 9.64753 119.183 8.96395C118.698 8.26969 118.46 7.28705 118.46 6.00534C118.46 4.72363 118.698 3.74099 119.183 3.04673C119.669 2.34179 120.351 2 121.23 2ZM132.195 2.91856V5.5781H132.598C133.239 5.5781 133.683 5.4713 133.941 5.25768C134.2 5.04406 134.324 4.68091 134.324 4.16822C134.324 3.71962 134.2 3.3992 133.962 3.20694C133.724 3.01469 133.28 2.91856 132.649 2.91856H132.195ZM131.265 2.10681H132.546C133.549 2.10681 134.251 2.26702 134.665 2.57677C135.068 2.8972 135.274 3.40988 135.274 4.13618C135.274 4.63818 135.14 5.05474 134.882 5.37517C134.623 5.6956 134.241 5.89853 133.755 5.99466C134.003 6.0267 134.2 6.11215 134.334 6.26168C134.479 6.40053 134.613 6.68892 134.758 7.12684L135.709 9.89319H134.706L133.89 7.41522C133.745 6.96662 133.6 6.67824 133.445 6.56075C133.29 6.44326 133.053 6.37917 132.711 6.37917H132.184V9.89319H131.265V2.10681ZM142.612 2.10681H143.987L145.93 8.41923L147.862 2.10681H149.257V9.89319H148.379V2.97196L146.229 9.89319H145.568L143.439 2.97196V9.89319H142.612V2.10681ZM159.024 3.10013L157.825 7.04139H160.181L159.024 3.10013ZM158.528 2.10681H159.582L162 9.89319H160.998L160.419 7.85314H157.566L156.957 9.89319H156.016L158.528 2.10681Z" fill="#0F346D"/>
<path d="M44.8822 15.9273C46.2834 15.9273 47.4193 14.7949 47.4193 13.3979C47.4193 12.0009 46.2834 10.8684 44.8822 10.8684C43.481 10.8684 42.345 12.0009 42.345 13.3979C42.345 14.7949 43.481 15.9273 44.8822 15.9273Z" fill="#0F346D"/>
<path d="M27.8687 27.0852C27.9133 28.8255 28.2056 29.4042 28.6522 29.558C29.0338 29.6915 29.456 29.7159 29.8132 29.7159C30.0609 29.7159 30.1948 29.7604 30.1948 29.8939C30.1948 30.072 29.9918 30.1165 29.6793 30.1165C28.226 30.1165 27.3329 30.0477 26.9066 30.0477C26.7036 30.0477 25.6563 30.1165 24.4912 30.1165C24.199 30.1165 24 30.0922 24 29.8939C24 29.7604 24.134 29.7159 24.3573 29.7159C24.6495 29.7159 25.0514 29.6915 25.364 29.6025C25.9445 29.4244 26.0338 28.7769 26.0582 26.8383L26.2611 13.6447C26.2611 13.1995 26.3302 12.8879 26.5535 12.8879C26.8011 12.8879 27 13.1793 27.3816 13.58C27.6495 13.8713 31.0473 17.5016 34.3111 20.7353C35.8294 22.2489 38.8496 25.4623 39.2312 25.8184H39.3449L39.1216 15.8099C39.0973 14.4501 38.8984 14.0251 38.3625 13.8026C38.0256 13.669 37.4897 13.669 37.1771 13.669C36.9092 13.669 36.8199 13.6002 36.8199 13.4666C36.8199 13.2886 37.0676 13.2643 37.4004 13.2643C38.5614 13.2643 39.6372 13.3331 40.104 13.3331C40.3517 13.3331 41.2001 13.2643 42.2962 13.2643C42.5884 13.2643 42.8117 13.2886 42.8117 13.4666C42.8117 13.6002 42.6778 13.669 42.4099 13.669C42.1866 13.669 42.008 13.669 41.7401 13.7378C41.1149 13.9159 40.9362 14.3853 40.9119 15.6319L40.6642 29.6956C40.6642 30.1853 40.575 30.3877 40.372 30.3877C40.1243 30.3877 39.8564 30.1408 39.6128 29.898C38.2042 28.5624 35.3422 25.6404 33.0161 23.3456C30.5805 20.9377 28.0961 18.1532 27.6941 17.7283H27.6251L27.8687 27.0852Z" fill="#0F346D"/>
<path d="M43.5424 21.8281C43.5424 19.1246 43.5424 18.6268 43.4978 18.0562C43.4531 17.4531 43.2299 17.1495 42.7387 17.0605C42.491 17.0079 42.2028 16.9877 41.9349 16.9877C41.7116 16.9877 41.5776 16.9513 41.5776 16.8096C41.5776 16.7044 41.7562 16.668 42.1135 16.668C42.962 16.668 44.3706 16.7206 45.0201 16.7206C45.5803 16.7206 46.8996 16.668 47.748 16.668C48.0404 16.668 48.219 16.7044 48.219 16.8096C48.219 16.9513 48.085 16.9877 47.8617 16.9877C47.6385 16.9877 47.4598 17.0038 47.1919 17.0403C46.5871 17.1293 46.4084 17.4329 46.3638 18.0562C46.3192 18.6268 46.3192 19.1246 46.3192 21.8281V24.9565C46.3192 26.6805 46.3191 28.0889 46.4084 28.8498C46.4775 29.3314 46.6317 29.6511 47.3015 29.72C47.6141 29.7564 48.1053 29.7928 48.4423 29.7928C48.6899 29.7928 48.7995 29.8454 48.7995 29.9344C48.7995 30.0599 48.6209 30.1125 48.3732 30.1125C46.8996 30.1125 45.491 30.0599 44.8861 30.0599C44.3705 30.0599 42.962 30.1125 42.0689 30.1125C41.7766 30.1125 41.6223 30.0599 41.6223 29.9344C41.6223 29.8454 41.7116 29.7928 41.9795 29.7928C42.3165 29.7928 42.5844 29.7564 42.7833 29.72C43.2299 29.6471 43.3638 29.3476 43.4328 28.8296C43.5465 28.0808 43.5465 26.6765 43.5465 24.9524V21.8281H43.5424Z" fill="#0F346D"/>
<path d="M52.1934 23.6533C52.1934 26.5065 52.1934 28.0445 52.6643 28.4451C53.0459 28.781 53.6264 28.9348 55.368 28.9348C56.5533 28.9348 57.4261 28.9105 57.9823 28.3116C58.2502 28.0201 58.5181 27.3969 58.5628 26.976C58.5872 26.7736 58.6318 26.6401 58.8104 26.6401C58.9688 26.6401 58.989 26.7534 58.989 27.0205C58.989 27.2674 58.8307 28.9388 58.6521 29.5823C58.5181 30.072 58.4044 30.1853 57.2434 30.1853C55.6318 30.1853 54.4708 30.1408 53.464 30.1166C52.4573 30.072 51.6535 30.0477 50.736 30.0477C50.4884 30.0477 49.9973 30.0477 49.4613 30.072C48.9458 30.072 48.3653 30.1166 47.9188 30.1166C47.6265 30.1166 47.4722 30.0477 47.4722 29.894C47.4722 29.7806 47.5616 29.7158 47.8295 29.7158C48.1664 29.7158 48.4344 29.6714 48.6332 29.6269C49.0798 29.5378 49.1934 29.0481 49.2828 28.4005C49.3964 27.4657 49.3964 25.7051 49.3964 23.6533V19.7316C49.3964 16.3442 49.3964 15.7209 49.3518 15.0046C49.3071 14.2478 49.1285 13.8916 48.3897 13.7338C48.2111 13.6893 47.9431 13.665 47.6509 13.665C47.4032 13.665 47.2693 13.6205 47.2693 13.4626C47.2693 13.3048 47.4276 13.2603 47.7604 13.2603C48.8118 13.2603 50.2205 13.3291 50.8213 13.3291C51.3572 13.3291 52.9891 13.2603 53.8619 13.2603C54.1745 13.2603 54.3328 13.3048 54.3328 13.4626C54.3328 13.6205 54.1988 13.665 53.9309 13.665C53.6833 13.665 53.326 13.6893 53.0581 13.7338C52.4532 13.8471 52.2746 14.2235 52.23 15.0046C52.1853 15.7169 52.1853 16.3401 52.1853 19.7316V23.6533H52.1934Z" fill="#0F346D"/>
<path d="M56.127 21.6903C56.127 17.878 58.652 12.9526 65.3624 12.9526C70.9279 12.9526 74.3947 16.1863 74.3947 21.2897C74.3947 26.3931 70.8184 30.4281 65.1391 30.4281C58.721 30.4281 56.127 25.6363 56.127 21.6903ZM71.2649 22.1153C71.2649 17.1212 68.3826 14.0251 64.7129 14.0251C62.1432 14.0251 59.2122 15.4497 59.2122 21.0023C59.2122 25.6404 61.7819 29.3151 66.0768 29.3151C67.6438 29.3151 71.2649 28.5543 71.2649 22.1153Z" fill="#0F346D"/>
<path fill-rule="evenodd" clip-rule="evenodd" d="M82.78 23.6173C82.78 25.7622 82.78 27.5991 82.6805 28.569C82.6001 29.2421 82.5006 29.7555 82.0911 29.8468C81.9112 29.8924 81.6616 29.9381 81.3623 29.9381C81.1227 29.9381 81.0324 30.0065 81.0324 30.1206C81.0324 30.2803 81.1725 30.3488 81.4419 30.3488C82.261 30.3488 83.5394 30.2803 84.0086 30.2803C84.5376 30.2803 85.816 30.3488 87.164 30.3488C87.3837 30.3488 87.5536 30.2803 87.5536 30.1206C87.5536 30.0065 87.4534 29.9381 87.2237 29.9381C86.9144 29.9381 86.4751 29.8924 86.1857 29.8468C85.5764 29.7555 85.4562 29.2421 85.3865 28.5918C85.287 27.5878 85.287 25.7508 85.287 23.6173V14.3073C85.287 14.0563 85.3467 13.9079 85.4462 13.8623C85.6261 13.7938 85.9361 13.771 86.2454 13.771C86.7147 13.771 87.5536 13.9079 88.2824 14.6838C89.4207 15.8476 89.4811 17.4106 89.4811 18.1751C89.4811 20.5482 87.8927 22.0086 86.7545 22.0086C86.325 22.0086 86.1857 22.0771 86.1857 22.2596C86.1857 22.4194 86.325 22.4422 86.4253 22.465C86.5248 22.4878 86.7545 22.4878 86.8547 22.4878C89.7506 22.4878 91.8672 20.1603 91.8672 16.8516C91.8672 15.6194 91.2984 14.5697 90.8491 14.0791C90.5191 13.7254 89.6105 12.7556 87.0645 12.7556C86.1252 12.7556 84.9471 12.8241 84.1081 12.8241C83.5394 12.8241 82.2511 12.7556 81.1725 12.7556C80.8632 12.7556 80.7231 12.8013 80.7231 12.961C80.7231 13.1207 80.8433 13.1664 81.073 13.1664C81.3623 13.1664 81.7014 13.1892 81.8714 13.2348C82.5404 13.3946 82.7104 13.771 82.7502 14.5583C82.79 15.2999 82.79 15.9502 82.79 19.4872V23.6173H82.78ZM96.1111 23.6173C96.1111 25.7622 96.1111 27.5991 96.0116 28.569C95.9319 29.2421 95.8317 29.7555 95.4221 29.8468C95.243 29.8924 94.9927 29.9381 94.6934 29.9381C94.4538 29.9381 94.3642 30.0065 94.3642 30.1206C94.3642 30.2803 94.5035 30.3488 94.773 30.3488C95.1825 30.3488 95.7122 30.3032 96.1815 30.3032C96.6706 30.2803 97.12 30.2803 97.3397 30.2803C97.949 30.2803 98.5782 30.3032 99.457 30.3488C100.335 30.3716 101.454 30.4173 102.981 30.4173C103.751 30.4173 103.941 30.4172 104.08 29.8126C104.18 29.3448 104.35 27.7703 104.35 27.234C104.35 27.0059 104.35 26.8119 104.19 26.8119C104.05 26.8119 104.01 26.9032 103.97 27.1656C103.83 28.124 103.581 28.6031 103.052 28.8884C102.522 29.1622 101.663 29.1622 101.134 29.1622C99.0574 29.1622 98.7275 28.8085 98.6877 27.2112C98.6678 26.5381 98.6877 24.3931 98.6877 23.6059V21.769C98.6877 21.6321 98.7076 21.5408 98.8079 21.5408C99.297 21.5408 101.314 21.5636 101.704 21.6093C102.452 21.7005 102.742 22.0542 102.842 22.522C102.902 22.8301 102.902 23.1267 102.922 23.3549C102.922 23.469 102.961 23.5603 103.102 23.5603C103.281 23.5603 103.281 23.3093 103.281 23.1153C103.281 22.9556 103.341 22.02 103.361 21.5522C103.441 20.3656 103.521 19.9892 103.521 19.8522C103.521 19.7153 103.461 19.6697 103.381 19.6697C103.281 19.6697 103.201 19.7838 103.052 19.9777C102.872 20.2059 102.563 20.2858 102.073 20.3314C101.603 20.3771 99.2672 20.3771 98.8178 20.3771C98.6977 20.3771 98.6778 20.2858 98.6778 20.1261V14.2388C98.6778 14.0791 98.7176 14.0107 98.8178 14.0107C99.2266 14.0107 101.364 14.0563 101.714 14.1019C102.732 14.2388 102.932 14.524 103.082 14.9348C103.181 15.2086 103.201 15.6079 103.201 15.7677C103.201 15.973 103.242 16.0986 103.381 16.0986C103.521 16.0986 103.561 15.9617 103.581 15.8476C103.621 15.5738 103.66 14.5468 103.681 14.3073C103.741 13.2348 103.84 12.961 103.84 12.7898C103.84 12.6757 103.82 12.5845 103.721 12.5845C103.621 12.5845 103.501 12.6529 103.391 12.6757C103.232 12.7214 102.902 12.767 102.512 12.8126C102.123 12.8355 98.0684 12.8355 97.4193 12.8355C97.1299 12.8355 96.6706 12.8126 96.1417 12.7898C95.6319 12.7898 95.0432 12.767 94.4936 12.767C94.1843 12.767 94.0442 12.8126 94.0442 12.9724C94.0442 13.1321 94.1644 13.1777 94.3941 13.1777C94.6834 13.1777 95.0233 13.2006 95.1925 13.2462C95.8615 13.4059 96.0315 13.7825 96.0713 14.5697C96.1111 15.3113 96.1111 15.9617 96.1111 19.4985V23.6173ZM115.195 30.6454C115.524 30.6683 115.884 30.6911 116.273 30.6911C117.581 30.6911 119.129 30.5313 119.938 30.1549C120.287 29.9952 120.367 29.8811 120.467 29.4817C120.667 28.6944 120.916 26.6636 120.916 26.3898C120.916 26.2072 120.876 26.0361 120.737 26.0361C120.577 26.0361 120.537 26.1274 120.467 26.5039C120.387 26.926 120.118 27.5991 119.778 28.0441C118.959 29.1166 117.861 29.3448 116.053 29.3448C113.327 29.3448 109.642 26.5951 109.642 21.0616C109.642 18.8026 110.032 16.5891 111.52 15.0375C112.418 14.1019 113.577 13.5999 115.344 13.5999C117.222 13.5999 118.809 14.2274 119.478 15.0375C119.988 15.6421 120.247 16.4522 120.277 17.1824C120.277 17.5133 120.317 17.6959 120.477 17.6959C120.657 17.6959 120.696 17.5133 120.716 17.1596C120.757 16.6919 120.737 15.414 120.777 14.6496C120.817 13.8395 120.876 13.5543 120.876 13.3717C120.876 13.2348 120.797 13.1207 120.567 13.0979C119.958 13.0295 119.309 12.8241 118.53 12.6986C117.591 12.5616 116.842 12.4704 115.574 12.4704C112.539 12.4704 110.601 13.4059 109.143 14.9348C107.185 16.977 106.756 19.7267 106.756 21.3126C106.756 27.2455 110.381 29.9723 114.166 30.5542L112.539 31.9461C112.268 32.1743 112.209 32.2199 112.209 32.2998C112.209 32.3683 112.369 32.4367 112.658 32.4824C114.026 32.7105 114.265 33.5548 114.265 34.1824C114.265 35.1636 113.227 35.7454 112.558 35.7454C112.268 35.7454 112.029 35.8367 112.029 36.0535C112.029 36.2132 112.189 36.2817 112.379 36.2817C115.294 36.2817 116.123 34.7186 116.123 33.7945C116.123 32.7448 115.205 32.0944 113.717 31.9347L115.195 30.6454ZM131.242 24.2905C131.341 24.2905 131.402 24.3361 131.442 24.4502L133.069 29.3791C133.169 29.6529 133.029 29.8696 132.889 29.9152C132.689 29.9381 132.6 29.9837 132.6 30.1206C132.6 30.2803 132.839 30.2803 133.209 30.3032C134.837 30.3488 136.325 30.3488 137.053 30.3488C137.802 30.3488 137.992 30.3032 137.992 30.1206C137.992 29.9609 137.892 29.9381 137.722 29.9381C137.483 29.9381 137.174 29.9152 136.864 29.8468C136.434 29.7099 135.845 29.3904 135.076 27.3025C133.778 23.777 130.513 14.2845 130.023 13.0066C129.824 12.4704 129.694 12.265 129.514 12.265C129.314 12.265 129.185 12.516 128.945 13.2006L123.853 27.8045C123.443 28.9682 123.053 29.7555 122.125 29.9039C121.965 29.9267 121.675 29.9495 121.496 29.9495C121.336 29.9495 121.256 29.9951 121.256 30.1321C121.256 30.3146 121.375 30.3602 121.646 30.3602C122.703 30.3602 123.822 30.2918 124.052 30.2918C124.681 30.2918 125.56 30.3602 126.209 30.3602C126.428 30.3602 126.559 30.3146 126.559 30.1321C126.559 29.9951 126.499 29.9495 126.248 29.9495H125.939C125.31 29.9495 125.12 29.6414 125.12 29.2307C125.12 28.9569 125.22 28.3978 125.43 27.816L126.529 24.4844C126.568 24.3475 126.608 24.3018 126.708 24.3018H131.242V24.2905ZM127.107 23.1267C127.028 23.1267 127.008 23.0583 127.028 22.967L128.905 17.2395C128.925 17.1482 128.965 17.0341 129.025 17.0341C129.085 17.0341 129.105 17.1482 129.124 17.2395L130.962 22.9898C130.982 23.0583 130.962 23.1267 130.862 23.1267H127.107ZM141.068 17.422L141.287 27.1999C141.327 29.0139 141.597 29.6186 141.996 29.7783C142.346 29.9152 142.726 29.9381 143.055 29.9381C143.275 29.9381 143.405 29.9837 143.405 30.1206C143.405 30.3032 143.225 30.3488 142.935 30.3488C141.607 30.3488 140.798 30.2803 140.409 30.2803C140.229 30.2803 139.27 30.3488 138.212 30.3488C137.942 30.3488 137.762 30.326 137.762 30.1206C137.762 29.9837 137.882 29.9381 138.092 29.9381C138.362 29.9381 138.721 29.9152 139.011 29.824C139.54 29.6414 139.62 28.9683 139.64 26.9374L139.82 13.1664C139.82 12.6986 139.88 12.3791 140.089 12.3791C140.309 12.3791 140.499 12.6872 140.848 13.0979C141.088 13.4059 144.183 17.1939 147.159 20.571C148.547 22.1569 151.293 25.4998 151.633 25.8763H151.732L151.533 15.4254C151.513 14.0107 151.334 13.5657 150.844 13.3261C150.544 13.1892 150.055 13.1892 149.765 13.1892C149.526 13.1892 149.436 13.1207 149.436 12.9838C149.436 12.8013 149.656 12.7785 149.965 12.7785C151.024 12.7785 152.003 12.8469 152.421 12.8469C152.641 12.8469 153.42 12.7785 154.419 12.7785C154.689 12.7785 154.889 12.8013 154.889 12.9838C154.889 13.1207 154.768 13.1892 154.519 13.1892C154.319 13.1892 154.149 13.1892 153.91 13.2576C153.341 13.4402 153.181 13.9308 153.161 15.2314L152.941 29.9152C152.941 30.4287 152.861 30.6341 152.672 30.6341C152.452 30.6341 152.202 30.3831 151.982 30.1206C150.704 28.7287 148.098 25.6824 145.981 23.275C143.764 20.765 141.507 17.8556 141.138 17.4106H141.068V17.422ZM162.098 20.1717C162.038 20.1717 161.979 20.1261 161.979 20.012V19.5213C161.979 15.9845 161.979 15.3341 162.018 14.5925C162.058 13.7825 162.218 13.3831 162.767 13.269C163.007 13.2234 163.197 13.2006 163.356 13.2006C163.596 13.2006 163.725 13.1549 163.725 12.9952C163.725 12.8355 163.586 12.7898 163.297 12.7898C162.498 12.7898 161.219 12.8583 160.73 12.8583C160.18 12.8583 158.893 12.7898 157.794 12.7898C157.504 12.7898 157.365 12.8355 157.365 12.9952C157.365 13.1549 157.484 13.2006 157.714 13.2006C158.004 13.2006 158.343 13.2234 158.513 13.269C159.182 13.4287 159.352 13.8053 159.392 14.5925C159.432 15.3341 159.432 15.9845 159.432 19.5213V23.6173C159.432 25.7622 159.432 27.5991 159.332 28.569C159.252 29.2421 159.152 29.7555 158.743 29.8468C158.563 29.8924 158.313 29.9381 158.014 29.9381C157.775 29.9381 157.684 30.0065 157.684 30.1206C157.684 30.2803 157.824 30.3488 158.094 30.3488C158.913 30.3488 160.191 30.2803 160.66 30.2803C161.229 30.2803 162.518 30.3488 163.836 30.3488C164.075 30.3488 164.245 30.2803 164.245 30.1206C164.245 30.0065 164.145 29.9381 163.915 29.9381C163.606 29.9381 163.167 29.8924 162.877 29.8468C162.268 29.7555 162.148 29.2421 162.078 28.5918C161.979 27.5878 161.979 25.7508 161.979 23.6173V21.575C161.979 21.4609 162.038 21.4381 162.098 21.4381H169.877C169.937 21.4381 169.997 21.4837 169.997 21.575V23.6173C169.997 25.7622 169.997 27.5991 169.897 28.569C169.817 29.2421 169.717 29.7555 169.308 29.8468C169.128 29.8924 168.879 29.9381 168.579 29.9381C168.339 29.9381 168.25 30.0065 168.25 30.1206C168.25 30.2803 168.389 30.3488 168.679 30.3488C169.477 30.3488 170.756 30.2803 171.225 30.2803C171.795 30.2803 173.083 30.3488 174.401 30.3488C174.641 30.3488 174.81 30.2803 174.81 30.1206C174.81 30.0065 174.71 29.9381 174.481 29.9381C174.171 29.9381 173.732 29.8924 173.442 29.8468C172.833 29.7555 172.713 29.2421 172.643 28.5918C172.543 27.5878 172.543 25.7508 172.543 23.6173V19.5213C172.543 15.9845 172.543 15.3341 172.583 14.5925C172.624 13.7825 172.783 13.3831 173.332 13.269C173.572 13.2234 173.762 13.2006 173.921 13.2006C174.161 13.2006 174.291 13.1549 174.291 12.9952C174.291 12.8355 174.151 12.7898 173.861 12.7898C173.063 12.7898 171.785 12.8583 171.295 12.8583C170.746 12.8583 169.457 12.7898 168.359 12.7898C168.07 12.7898 167.93 12.8355 167.93 12.9952C167.93 13.1549 168.05 13.2006 168.279 13.2006C168.569 13.2006 168.909 13.2234 169.079 13.269C169.748 13.4287 169.917 13.8053 169.957 14.5925C169.997 15.3341 169.997 15.9845 169.997 19.5213V20.012C169.997 20.1261 169.937 20.1717 169.877 20.1717H162.098ZM184.577 24.2905H180.033C179.933 24.2905 179.893 24.3361 179.853 24.473L178.754 27.8045C178.555 28.3864 178.445 28.9454 178.445 29.2193C178.445 29.6414 178.625 29.9381 179.264 29.9381H179.573C179.813 29.9381 179.883 29.9837 179.883 30.1206C179.883 30.3032 179.763 30.3488 179.534 30.3488C178.885 30.3488 178.006 30.2803 177.376 30.2803C177.157 30.2803 176.028 30.3488 174.97 30.3488C174.7 30.3488 174.58 30.3032 174.58 30.1206C174.58 29.9837 174.661 29.9381 174.82 29.9381C175 29.9381 175.29 29.9152 175.449 29.8924C176.388 29.7555 176.777 28.9569 177.177 27.7931L182.289 13.1777C182.529 12.5046 182.659 12.2422 182.859 12.2422C183.039 12.2422 183.168 12.4476 183.368 12.9838C183.857 14.2617 187.113 23.7542 188.421 27.2797C189.19 29.3676 189.789 29.6871 190.208 29.824C190.518 29.8924 190.818 29.9152 191.067 29.9152C191.227 29.9152 191.337 29.9381 191.337 30.0978C191.337 30.2803 191.157 30.326 190.398 30.326C189.669 30.326 188.181 30.326 186.553 30.2803C186.184 30.2575 185.945 30.2575 185.945 30.0978C185.945 29.9609 186.024 29.9152 186.234 29.8924C186.374 29.8468 186.523 29.6414 186.414 29.3562L184.786 24.4274C184.736 24.3361 184.676 24.2905 184.577 24.2905ZM180.442 23.1267H184.187C184.287 23.1267 184.306 23.0583 184.287 22.9898L182.449 17.2395C182.429 17.1482 182.41 17.0341 182.349 17.0341C182.289 17.0341 182.25 17.1482 182.23 17.2395L180.352 22.967C180.342 23.0583 180.362 23.1267 180.442 23.1267Z" fill="#0F346D"/>
</svg>
